<?xml version="1.0" encoding="UTF-8"?>
<svg viewBox="0 0 100 100" xmlns="http://www.w3.org/2000/svg">
  <defs>
    <linearGradient id="bridgeGradient" x1="0%" y1="0%" x2="100%" y2="100%">
      <stop offset="0%" style="stop-color:#009966;stop-opacity:1" />
      <stop offset="100%" style="stop-color:#00774c;stop-opacity:1" />
    </linearGradient>
    <linearGradient id="accentGradient" x1="0%" y1="0%" x2="100%" y2="100%">
      <stop offset="0%" style="stop-color:#00b894;stop-opacity:1" />
      <stop offset="100%" style="stop-color:#00cec9;stop-opacity:1" />
    </linearGradient>
  </defs>
  
  <!-- Bridge Main Structure -->
  <g transform="translate(20, 30)">
    <!-- Main Bridge Deck -->
    <rect fill="url(#bridgeGradient)" x="0" y="35" width="60" height="8" rx="4"/>
    
    <!-- Bridge Towers -->
    <rect fill="url(#bridgeGradient)" x="8" y="15" width="4" height="25" rx="1"/>
    <rect fill="url(#bridgeGradient)" x="48" y="15" width="4" height="25" rx="1"/>
    
    <!-- Bridge Cables -->
    <path stroke="url(#accentGradient)" stroke-width="1.5" fill="none" 
          d="M10 18 L15 35 M10 22 L20 35 M10 26 L25 35 M10 30 L30 35"/>
    <path stroke="url(#accentGradient)" stroke-width="1.5" fill="none" 
          d="M50 18 L45 35 M50 22 L40 35 M50 26 L35 35 M50 30 L30 35"/>
    
    <!-- Bridge Arch -->
    <path fill="none" stroke="url(#bridgeGradient)" stroke-width="3" 
          d="M0 43 Q30 28 60 43"/>
    
    <!-- Bridge Supports -->
    <rect fill="url(#bridgeGradient)" x="0" y="43" width="8" height="12" rx="2"/>
    <rect fill="url(#bridgeGradient)" x="52" y="43" width="8" height="12" rx="2"/>
    
    <!-- Decorative Elements -->
    <circle fill="url(#accentGradient)" cx="10" cy="15" r="2"/>
    <circle fill="url(#accentGradient)" cx="50" cy="15" r="2"/>
  </g>
</svg>
